<svg width="24" height="24" viewBox="0 0 24 24" fill="none" xmlns="http://www.w3.org/2000/svg">
<circle cx="12" cy="12" r="11" fill="black"/>
<path fill-rule="evenodd" clip-rule="evenodd" d="M17.3656 8.23435C17.5156 8.38437 17.5998 8.58782 17.5998 8.79995C17.5998 9.01208 17.5156 9.21553 17.3656 9.36555L10.9656 15.7656C10.8156 15.9155 10.6122 15.9998 10.4 15.9998C10.1879 15.9998 9.98444 15.9155 9.83442 15.7656L6.63442 12.5656C6.48869 12.4147 6.40806 12.2126 6.40988 12.0028C6.4117 11.7931 6.49584 11.5924 6.64417 11.4441C6.79249 11.2958 6.99314 11.2116 7.2029 11.2098C7.41266 11.208 7.61474 11.2886 7.76562 11.4344L10.4 14.0688L16.2344 8.23435C16.3844 8.08437 16.5879 8.00012 16.8 8.00012C17.0122 8.00012 17.2156 8.08437 17.3656 8.23435Z" fill="white"/>
</svg>
