<svg width="24" height="24" viewBox="0 0 24 24" fill="none" xmlns="http://www.w3.org/2000/svg">
<path d="M11.6375 9.87326C9.15753 10.1533 3.98153 11.3613 3.11753 13.9533C2.25353 16.5453 6.21012 16.5123 7.89012 16.3523C6.57012 17.3123 4.70151 18.3453 5.75752 20.0733C6.93012 21.992 9.69012 22.5923 12.2375 22.3533C14.5998 22.1315 19.28 21.76 20 16C20.1439 14.8495 20.5 12.5 20 11C17.0864 10.1935 16.56 7.31979 16.56 7.31979C14.0699 8.60725 12.72 8.15979 11.1302 6.15234C9.72005 7.67979 8.64004 8.03979 6.57015 7.47237C6.11752 8.55237 4.63291 9.47979 2.97017 9.59979C2.76008 10.1998 2.82275 10.8323 2.97013 11.4323" stroke="black" stroke-width="2"/>
<path d="M4.14001 7.15503C3.81843 7.37285 3.4235 7.44884 3.06348 7.40278C2.68912 7.35488 2.45263 7.19221 2.36022 7.05578C2.27766 6.93388 2.23465 6.73037 2.33514 6.44239C2.43565 6.15439 2.66886 5.83331 3.03692 5.58401C3.40498 5.33472 3.78966 5.23726 4.09439 5.25078C4.39911 5.2643 4.57214 5.37974 4.6547 5.50164C4.75698 5.65264 4.82083 5.93424 4.73901 6.28046C4.66007 6.61449 4.45891 6.93903 4.14001 7.15503Z" stroke="black" stroke-width="1.5"/>
<path d="M8.50984 5.44945C7.99405 5.59172 7.42204 5.49973 6.93782 5.25113C6.4356 4.99329 6.1528 4.63558 6.08293 4.38231C6.02057 4.15621 6.07243 3.84799 6.3482 3.50824C6.62282 3.16991 7.08444 2.85583 7.6806 2.69139C8.27676 2.52695 8.83413 2.55996 9.24337 2.70965C9.65431 2.85998 9.85685 3.09803 9.91922 3.32412C9.99631 3.60361 9.9448 4.05738 9.68141 4.51217C9.42646 4.95237 9.01972 5.30881 8.50984 5.44945Z" stroke="black" stroke-width="1.5"/>
<path d="M18.9597 7.55445C18.6484 7.20255 18.5987 6.89576 18.6378 6.64846C18.6813 6.37358 18.8515 6.08187 19.1242 5.84067C19.2739 5.70828 19.5292 5.62796 19.8961 5.7078C20.2625 5.78751 20.6832 6.02179 21.0377 6.42249C21.3355 6.75913 21.4963 7.26922 21.4916 7.79206C21.4866 8.33817 21.3073 8.70838 21.1556 8.84254C21.1512 8.84645 21.1451 8.85115 21.1282 8.85602C21.1084 8.86173 21.0689 8.86867 21.0029 8.86458C20.8636 8.85596 20.662 8.80174 20.409 8.67965C19.9035 8.43574 19.3531 7.99924 18.9597 7.55445Z" stroke="black" stroke-width="1.5"/>
<path d="M14.2899 5.66374C13.682 5.54585 13.1476 5.13952 12.7806 4.60985C12.4007 4.06142 12.2885 3.51342 12.3479 3.20693C12.3968 2.95492 12.6085 2.67024 13.083 2.46795C13.5528 2.26771 14.2065 2.18956 14.9224 2.3284C15.6384 2.46724 16.2155 2.78405 16.5764 3.14537C16.9409 3.51038 17.0308 3.85355 16.982 4.10556C16.9216 4.41696 16.6147 4.88453 16.0661 5.25029C15.5359 5.60382 14.8966 5.78138 14.2899 5.66374Z" stroke="black" stroke-width="1.5"/>
</svg>
