<svg width="24" height="24" viewBox="0 0 24 24" fill="none" xmlns="http://www.w3.org/2000/svg">
<path d="M21 11.5556C21.0034 12.7288 20.695 13.8861 20.1 14.9333C19.3944 16.1882 18.3097 17.2437 16.9674 17.9816C15.6251 18.7195 14.0782 19.1106 12.5 19.1111C11.1801 19.1142 9.8781 18.8401 8.69999 18.3111L3 20L4.9 14.9333C4.30493 13.8861 3.99656 12.7288 4 11.5556C4.00061 10.1527 4.44061 8.77766 5.27072 7.58451C6.10082 6.39135 7.28825 5.42719 8.69999 4.80002C9.8781 4.27107 11.1801 3.99697 12.5 4.00003H13C15.0843 4.10224 17.053 4.88426 18.5291 6.19634C20.0052 7.50843 20.885 9.25837 21 11.1111V11.5556Z" stroke="black" stroke-width="2" stroke-linecap="round" stroke-linejoin="round"/>
</svg>
