<svg width="24" height="25" viewBox="0 0 24 25" fill="none" xmlns="http://www.w3.org/2000/svg">
<path d="M21 13C21 15.3869 20.0518 17.6761 18.364 19.364C16.6761 21.0518 14.3869 22 12 22M21 13C21 10.6131 20.0518 8.32387 18.364 6.63604C16.6761 4.94821 14.3869 4 12 4M21 13H3M12 22C9.61305 22 7.32387 21.0518 5.63604 19.364C3.94821 17.6761 3 15.3869 3 13M12 22C13.657 22 15 17.97 15 13C15 8.03 13.657 4 12 4M12 22C10.343 22 9 17.97 9 13C9 8.03 10.343 4 12 4M12 4C9.61305 4 7.32387 4.94821 5.63604 6.63604C3.94821 8.32387 3 10.6131 3 13" stroke="black" stroke-width="2" stroke-linecap="round" stroke-linejoin="round"/>
<path fill-rule="evenodd" clip-rule="evenodd" d="M14.4646 2.46444C15.4022 1.52678 16.674 1 18.0001 1C19.3261 1 20.5979 1.52678 21.5355 2.46444C22.4732 3.40211 23 4.67385 23 5.99991C23 7.32597 22.4732 8.59772 21.5355 9.53538L18.0001 13.0709L14.4646 9.53538C14.0002 9.07112 13.6319 8.51994 13.3806 7.91332C13.1293 7.3067 13 6.65652 13 5.99991C13 5.34331 13.1293 4.69313 13.3806 4.08651C13.6319 3.47989 14.0002 2.92871 14.4646 2.46444ZM18.0001 7.42839C18.3789 7.42839 18.7423 7.27789 19.0101 7.00999C19.278 6.7421 19.4285 6.37877 19.4285 5.99991C19.4285 5.62106 19.278 5.25772 19.0101 4.98983C18.7423 4.72194 18.3789 4.57144 18.0001 4.57144C17.6212 4.57144 17.2579 4.72194 16.99 4.98983C16.7221 5.25772 16.5716 5.62106 16.5716 5.99991C16.5716 6.37877 16.7221 6.7421 16.99 7.00999C17.2579 7.27789 17.6212 7.42839 18.0001 7.42839Z" fill="black" stroke="white" stroke-width="1.42848"/>
</svg>
