<svg width="24" height="24" viewBox="0 0 24 24" fill="none" xmlns="http://www.w3.org/2000/svg">
<path d="M20.452 7.82799C20.3536 7.88959 18.0112 9.18959 18.0112 12.072C18.1216 15.3592 20.9672 16.512 21.016 16.512C20.9672 16.5736 20.5864 18.0824 19.4584 19.664C18.5632 21.0264 17.5696 22.4 16.0608 22.4C14.6256 22.4 14.1104 21.492 12.4544 21.492C10.676 21.492 10.1728 22.4 8.81122 22.4C7.30242 22.4 6.23522 20.9528 5.29122 19.6032C4.06482 17.8368 3.02242 15.0648 2.98562 12.4032C2.96082 10.9928 3.23122 9.60639 3.91762 8.42879C4.88642 6.78479 6.61602 5.66879 8.50482 5.63199C9.95202 5.58319 11.24 6.62559 12.1232 6.62559C12.9696 6.62559 14.552 5.63199 16.3424 5.63199C17.1152 5.63279 19.176 5.86559 20.452 7.82799ZM12.0008 5.35039C11.7432 4.06239 12.4544 2.77439 13.1168 1.95279C13.9632 0.95919 15.3 0.28479 16.4528 0.28479C16.5264 1.57279 16.06 2.83599 15.2264 3.75599C14.4784 4.74959 13.1904 5.49759 12.0008 5.35039Z" fill="black"/>
</svg>
