<svg width="23" height="24" viewBox="0 0 23 24" fill="none" xmlns="http://www.w3.org/2000/svg">
<path d="M11.6374 9.87326C9.15741 10.1533 3.98141 11.3613 3.11741 13.9533C2.25341 16.5453 6.21 16.5123 7.89 16.3523C6.57 17.3123 4.70139 18.3453 5.7574 20.0733C6.93 21.992 9.69 22.5923 12.2374 22.3533C14.5996 22.1315 19.2799 21.76 19.9999 16C20.1437 14.8495 20.4999 12.5 19.9999 11C17.0863 10.1935 16.5599 7.31979 16.5599 7.31979C14.0698 8.60725 12.7199 8.15979 11.13 6.15234C9.71992 7.67979 8.63992 8.03979 6.57003 7.47237C6.1174 8.55237 4.63279 9.47979 2.97004 9.59979C2.75996 10.1998 2.82263 10.8323 2.97001 11.4323" stroke="#745E27" stroke-width="1.5"/>
<path d="M4.2207 7.45455C3.87304 7.69004 3.45273 7.77235 3.07493 7.72783C2.68472 7.68184 2.42236 7.51418 2.31185 7.35102C2.20949 7.19991 2.17073 6.96395 2.28204 6.65454C2.39314 6.34573 2.64342 6.00954 3.02754 5.74936C3.41166 5.48918 3.81671 5.38149 4.14471 5.39289C4.47333 5.40431 4.67807 5.52785 4.78042 5.67896C4.89894 5.85394 4.95968 6.15962 4.87028 6.5217C4.78343 6.87345 4.5663 7.22046 4.2207 7.45455Z" stroke="#745E27" stroke-width="1.2"/>
<path d="M8.50969 5.79413C7.95119 5.94818 7.34047 5.84709 6.82928 5.58464C6.30368 5.3148 5.9829 4.92898 5.89829 4.62227C5.81969 4.33729 5.89431 3.98016 6.19169 3.61378C6.48817 3.24853 6.97789 2.91865 7.60068 2.74686C8.22347 2.57507 8.81306 2.60725 9.25486 2.76886C9.69802 2.93097 9.94517 3.19934 10.0238 3.48431C10.1142 3.812 10.0492 4.30729 9.77117 4.78742C9.49985 5.25589 9.06345 5.64138 8.50969 5.79413Z" stroke="#745E27" stroke-width="1.2"/>
<path d="M18.8073 7.8539C18.4685 7.47089 18.403 7.11972 18.4496 6.82508C18.4998 6.50838 18.6923 6.18713 18.9848 5.92839C19.1789 5.7567 19.4868 5.67402 19.888 5.7613C20.2886 5.84848 20.7367 6.10112 21.11 6.52318C21.438 6.89399 21.6065 7.4431 21.6015 7.9935C21.5964 8.5625 21.4107 8.98185 21.215 9.15496C21.1791 9.18671 21.1107 9.2241 20.9536 9.21437C20.7882 9.20413 20.567 9.14185 20.3037 9.01482C19.7776 8.76097 19.2118 8.31124 18.8073 7.8539Z" stroke="#745E27" stroke-width="1.2"/>
<path d="M14.2212 6.01107C13.5663 5.88406 13.0009 5.4492 12.6172 4.89534C12.2231 4.32649 12.0909 3.73764 12.1605 3.37845C12.2217 3.06284 12.4794 2.74514 12.9841 2.53004C13.4849 2.31657 14.1694 2.23744 14.9108 2.38121C15.6522 2.52499 16.2576 2.85424 16.6423 3.23944C17.03 3.62759 17.1503 4.01858 17.0891 4.33419C17.0187 4.6973 16.6789 5.1953 16.1092 5.57517C15.5541 5.94525 14.8752 6.13789 14.2212 6.01107Z" stroke="#745E27" stroke-width="1.2"/>
</svg>
